<?xml version="1.0" encoding="UTF-8"?>
<svg version="1.1" xmlns="http://www.w3.org/2000/svg" width="500" height="500">
<path d="M0 0 C3.37220644 0.01094018 6.74437317 0.01046506 10.11659431 0.00986195 C13.36609041 0.01013269 16.6155601 0.01559427 19.86504745 0.02286339 C21.4160632 0.02604562 22.96708191 0.02801643 24.51810074 0.0287571 C26.6640572 0.03091105 28.80988211 0.03962693 30.95581055 0.050354 C32.78512619 0.0560717 32.78512619 0.0560717 34.65139771 0.06190491 C37.37719727 0.19561768 37.37719727 0.19561768 38.37719727 1.19561768 C38.47270424 2.61240678 38.4990821 4.03393009 38.49745178 5.45393372 C38.49951378 6.8317099 38.49951378 6.8317099 38.50161743 8.23731995 C38.49802216 9.25295517 38.49442688 10.26859039 38.49072266 11.31500244 C38.49086868 12.37828766 38.49101471 13.44157288 38.49116516 14.53707886 C38.49046551 18.07041425 38.48267069 21.60369768 38.47485352 25.13702393 C38.47298952 27.57940136 38.47156553 30.02177916 38.4705658 32.4641571 C38.46673916 38.90696232 38.45690763 45.34974516 38.44586182 51.7925415 C38.43385699 59.51508878 38.42924615 67.23764352 38.42340851 74.96019745 C38.41369596 86.70535311 38.3945404 98.45045963 38.37719727 110.19561768 C20.55719727 110.19561768 2.73719727 110.19561768 -15.62280273 110.19561768 C-15.12780273 80.49561768 -15.12780273 80.49561768 -14.62280273 50.19561768 C-45.04961583 51.4126902 -72.77800845 53.26597094 -95.62280273 75.19561768 C-113.18268804 94.46661002 -116.77913568 119.40277428 -115.76000977 144.56964111 C-114.66227143 165.57902456 -107.6097542 186.35525184 -91.81030273 200.88311768 C-70.62874278 218.52083972 -43.606984 221.41076344 -17.09155273 221.60968018 C-15.47773316 221.62845406 -13.86392275 221.64803172 -12.25012207 221.66836548 C-8.06151821 221.71903735 -3.87288274 221.75900429 0.31585693 221.79650879 C5.37319298 221.8441115 10.43038033 221.90542266 15.4875946 221.96435547 C23.11739995 222.05177273 30.74718842 222.12210339 38.37719727 222.19561768 C38.70719727 233.41561768 39.03719727 244.63561768 39.37719727 256.19561768 C41.41907227 253.26686768 43.46094727 250.33811768 45.56469727 247.32061768 C50.849646 239.75695732 56.20157372 232.24652049 61.62011719 224.77813721 C65.7495729 219.08125567 69.81495835 213.34179964 73.86035156 207.58502197 C77.46594994 202.46295656 81.13143986 197.3870253 84.81469727 192.32061768 C89.36317147 186.05998536 93.78162806 179.72361083 98.12719727 173.32061768 C102.31137452 167.15908423 106.5821805 161.1182281 111.09985352 155.19561768 C113.92291394 151.47673191 116.68292303 147.71376855 119.43969727 143.94561768 C120.17470459 142.94159912 120.17470459 142.94159912 120.92456055 141.91729736 C122.07600026 140.34381436 123.22668385 138.76977809 124.37719727 137.19561768 C123.05722028 134.40733005 121.58190233 131.95237537 119.76000977 129.46514893 C119.24156494 128.75326416 118.72312012 128.04137939 118.18896484 127.30792236 C117.35401489 126.16951904 117.35401489 126.16951904 116.50219727 125.00811768 C115.32043301 123.3849835 114.13946167 121.76127176 112.95922852 120.13702393 C112.36062012 119.31347412 111.76201172 118.48992432 111.14526367 117.64141846 C108.46291931 113.93087913 105.82357495 110.19064905 103.18969727 106.44561768 C99.60326375 101.34938313 96.00542809 96.26219066 92.37719727 91.19561768 C88.17905232 85.33191815 84.01626032 79.44380277 79.86450195 73.54718018 C77.38870719 70.03377162 74.90326732 66.52812356 72.39282227 63.03936768 C71.92618164 62.39032471 71.45954102 61.74128174 70.97875977 61.0725708 C70.09540121 59.84582575 69.21006597 58.62050102 68.32250977 57.39678955 C65.37719727 53.30553593 65.37719727 53.30553593 65.37719727 52.19561768 C73.62644711 51.77582279 81.87114659 51.45747748 90.12848186 51.26299858 C93.96468884 51.16957185 97.79352723 51.04334402 101.62548828 50.83770752 C126.25530669 49.5504946 126.25530669 49.5504946 132.9838562 53.86837769 C137.20376843 57.97244848 139.88486384 62.7279477 142.34469604 68.03338623 C143.6621789 70.79241722 145.35050951 73.14060169 147.20141602 75.56671143 C148.1568862 76.9214451 149.11139421 78.27685816 150.06469727 79.63311768 C150.56163086 80.33759033 151.05856445 81.04206299 151.57055664 81.7678833 C153.53705031 84.55929313 155.48293865 87.35422976 157.37719727 90.19561768 C162.92832403 83.14295662 168.2231688 76.0441121 173.13891602 68.52764893 C175.80924241 64.49940437 178.65975171 60.60334772 181.50219727 56.69561768 C188.00474826 47.75033956 194.34737011 38.69913407 200.67504883 29.62969971 C203.83639596 25.10895518 207.02178872 20.60520268 210.20751953 16.10162354 C210.65409912 15.47006348 211.10067871 14.83850342 211.56079102 14.18780518 C211.99562805 13.59658875 212.43046509 13.00537231 212.878479 12.39624023 C214.44182861 10.19559907 214.44182861 10.19559907 215.6915741 7.65382385 C217.99916234 3.55037928 219.70320791 0.69354236 224.35295105 -0.68951416 C228.06273587 -0.97951344 231.65078188 -0.95529601 235.36938477 -0.81610107 C236.72457568 -0.79996354 238.07982413 -0.78813569 239.43508911 -0.78041077 C242.98422046 -0.74806614 246.52923846 -0.65485522 250.07684326 -0.54931641 C253.6998939 -0.45365998 257.32350466 -0.42114521 260.94750977 -0.3805542 C266.22417761 -0.30929235 271.4998213 -0.21832553 276.77514648 -0.07659912 C277.83547089 -0.04865768 278.89579529 -0.02071625 279.98825073 0.0080719 C282.37719727 0.19561768 282.37719727 0.19561768 283.37719727 1.19561768 C283.92110264 3.86431225 283.69938733 5.62126536 282.36401367 8.00177002 C280.86133344 10.17539457 279.29226889 12.28202363 277.68969727 14.38311768 C276.49147232 15.99616998 275.2935646 17.60945796 274.09594727 19.22296143 C273.47848633 20.04651123 272.86102539 20.87006104 272.22485352 21.71856689 C269.33377723 25.59447335 266.51314885 29.52033133 263.68969727 33.44561768 C262.60255865 34.95089894 261.51532088 36.45610859 260.42797852 37.96124268 C257.33082228 42.25540013 254.25282558 46.56300247 251.18066406 50.87506104 C247.80970447 55.6019751 244.406971 60.3055243 241.00219727 65.00811768 C236.75476745 70.8769317 232.54479974 76.76986175 228.37719727 82.69561768 C222.66967098 90.8089354 216.86951459 98.85300222 211.04907227 106.88555908 C209.32202327 109.27185254 207.5990585 111.66104737 205.87719727 114.05108643 C205.30155029 114.84974121 204.72590332 115.648396 204.1328125 116.47125244 C203.04327496 117.98309379 201.95420698 119.49527372 200.86572266 121.00787354 C197.42452244 125.7792204 193.92273452 130.5013043 190.37719727 135.19561768 C191.69068537 137.96637016 193.1527269 140.4154136 194.95922852 142.89093018 C195.47251709 143.59765869 195.98580566 144.30438721 196.51464844 145.03253174 C197.06741455 145.7876001 197.62018066 146.54266846 198.18969727 147.32061768 C199.3694512 148.9429652 200.54913676 150.56536245 201.72875977 152.18780518 C202.33365234 153.01763916 202.93854492 153.84747314 203.56176758 154.70245361 C206.40656575 158.60926896 209.23595149 162.52717147 212.06469727 166.44561768 C212.87825684 167.57205688 212.87825684 167.57205688 213.70825195 168.72125244 C222.68266269 181.15268438 231.56447497 193.64904485 240.37719727 206.19561768 C240.84174316 206.85674561 241.30628906 207.51787354 241.78491211 208.19903564 C243.06871047 210.02913117 244.34878566 211.86175649 245.62719727 213.69561768 C246.35422852 214.73718018 247.08125977 215.77874268 247.83032227 216.85186768 C249.37719727 219.19561768 249.37719727 219.19561768 249.37719727 220.19561768 C241.18859693 220.47471877 233.00200848 220.68738053 224.80981541 220.81736374 C221.00479268 220.87978128 217.20304149 220.96427718 213.39990234 221.10089111 C209.72319398 221.23212381 206.04961158 221.30318688 202.37074089 221.33414459 C200.97376199 221.35617512 199.57693864 221.39920728 198.18130684 221.46437836 C193.66725354 221.6666179 189.6936313 221.58531467 185.37719727 220.19561768 C181.48920301 216.60918127 179.0418823 212.77396672 176.37719727 208.19561768 C175.30689063 206.65986549 174.22446971 205.13231862 173.11938477 203.62139893 C172.1623222 202.25123559 171.2065721 200.88015448 170.25219727 199.50811768 C166.11829487 193.60470983 161.88773892 187.81930974 157.37719727 182.19561768 C156.66176758 183.21397705 155.94633789 184.23233643 155.20922852 185.28155518 C149.81113651 192.95330007 144.38160328 200.59972033 138.87719727 208.19561768 C134.6703212 214.00126934 130.50115883 219.8307756 126.37719727 225.69561768 C121.14538536 233.13489768 115.83037127 240.51159803 110.49829102 247.87921143 C107.59328298 251.89387696 104.69865556 255.91580582 101.81469727 259.94561768 C101.0502832 261.01296143 100.28586914 262.08030518 99.49829102 263.17999268 C97.29651026 266.1024481 97.29651026 266.1024481 95.98457336 269.33854675 C92.99401717 272.61549293 92.42008024 272.65280502 88.1915741 272.93733215 C85.97389998 272.96392777 83.75567975 272.95698912 81.53808594 272.92437744 C80.32598953 272.93007248 79.11389313 272.93576752 77.86506653 272.94163513 C74.53658768 272.95085573 71.21033887 272.93319155 67.88212371 272.902776 C64.3775111 272.87632366 60.87293246 272.88170973 57.36824036 272.88285828 C51.46241296 272.88004587 45.55704684 272.85400324 39.65136719 272.81304932 C32.88402593 272.76628432 26.11719437 272.75004069 19.34970301 272.75225598 C12.09000615 272.75430943 4.83049875 272.7332916 -2.42913985 272.70591617 C-4.48883243 272.69961117 -6.54849307 272.69740472 -8.60819435 272.69619942 C-29.44083443 272.66078773 -49.96520292 271.59791224 -70.24780273 266.50811768 C-71.27429932 266.25465576 -72.3007959 266.00119385 -73.35839844 265.74005127 C-105.17772484 257.56137312 -134.37301473 240.98899005 -151.62280273 212.19561768 C-160.20389296 197.27577197 -165.50308078 181.56544095 -168.07983398 164.57452393 C-168.52605434 161.21635307 -168.52605434 161.21635307 -169.62280273 158.19561768 C-170.07838342 153.0154966 -170.30819165 147.82989224 -170.51879883 142.63458252 C-170.58365897 141.11356646 -170.65788239 139.59288549 -170.74633789 138.07305908 C-172.59064625 105.69956129 -162.89579255 68.02973101 -141.01879883 43.38897705 C-134.26207689 36.0957649 -127.24687147 29.23595812 -118.62280273 24.19561768 C-117.98310547 23.81985596 -117.3434082 23.44409424 -116.68432617 23.0569458 C-96.98011846 11.652524 -76.06769677 5.60183254 -53.62280273 2.19561768 C-52.40254395 2.00652832 -51.18228516 1.81743896 -49.92504883 1.62261963 C-33.41086607 -0.63956689 -16.62985155 -0.06827577 0 0 Z " fill="#FEFEFB" transform="translate(186.622802734375,142.80438232421875)"/>
<path d="M0 0 C1.59471145 -0.00067508 3.18942281 -0.0016468 4.78413391 -0.00289917 C8.09788001 -0.00436184 11.41159889 -0.00226491 14.7253418 0.00244141 C18.98024709 0.00818948 23.23508999 0.00481897 27.4899931 -0.00113106 C30.76952085 -0.00473185 34.0490336 -0.00360121 37.32856178 -0.00100327 C38.89911723 -0.0003353 40.46967402 -0.00115788 42.04022789 -0.00348282 C44.22045944 -0.00600693 46.40058682 -0.00217461 48.58081055 0.00341797 C50.44179634 0.00461136 50.44179634 0.00461136 52.34037781 0.00582886 C55.11328125 0.1328125 55.11328125 0.1328125 56.11328125 1.1328125 C56.20878823 2.54960161 56.23516608 3.97112491 56.23353577 5.39112854 C56.23559776 6.76890472 56.23559776 6.76890472 56.23770142 8.17451477 C56.2323085 9.69796761 56.2323085 9.69796761 56.22680664 11.25219727 C56.22695267 12.31548248 56.22709869 13.3787677 56.22724915 14.47427368 C56.2265495 18.00760908 56.21875468 21.5408925 56.2109375 25.07421875 C56.2090735 27.51659618 56.20764952 29.95897399 56.20664978 32.40135193 C56.20282314 38.84415714 56.19299162 45.28693998 56.1819458 51.72973633 C56.16994098 59.4522836 56.16533013 67.17483834 56.15949249 74.89739227 C56.14977994 86.64254793 56.13062439 98.38765445 56.11328125 110.1328125 C38.29328125 110.1328125 20.47328125 110.1328125 2.11328125 110.1328125 C2.44328125 90.3328125 2.77328125 70.5328125 3.11328125 50.1328125 C-15.92015911 50.7960054 -15.92015911 50.7960054 -34.88671875 52.1328125 C-34.55671875 51.4728125 -34.22671875 50.8128125 -33.88671875 50.1328125 C-26.8536294 48.73151601 -19.66532048 48.98029299 -12.52075195 49.00244141 C-10.42977864 49.0078629 -8.33901418 49.00243815 -6.24804688 48.99609375 C-4.93384766 48.99738281 -3.61964844 48.99867188 -2.265625 49 C-1.06494385 49.00112793 0.1357373 49.00225586 1.37280273 49.00341797 C4.11328125 49.1328125 4.11328125 49.1328125 5.11328125 50.1328125 C5.20704178 51.94336275 5.23072235 53.75758451 5.22680664 55.57055664 C5.22673111 56.73168472 5.22665558 57.89281281 5.22657776 59.08912659 C5.22141647 60.3526445 5.21625519 61.61616241 5.2109375 62.91796875 C5.20952255 64.20392441 5.2081076 65.48988007 5.20664978 66.81480408 C5.20282543 70.23924693 5.19299587 73.66364759 5.1819458 77.08807373 C5.17172989 80.58019428 5.16709707 84.07232183 5.16210938 87.56445312 C5.15190372 94.42061022 5.13233202 101.27665135 5.11328125 108.1328125 C21.28328125 108.1328125 37.45328125 108.1328125 54.11328125 108.1328125 C54.11328125 73.1528125 54.11328125 38.1728125 54.11328125 2.1328125 C26.72328125 2.1328125 -0.66671875 2.1328125 -28.88671875 2.1328125 C-28.88671875 1.8028125 -28.88671875 1.4728125 -28.88671875 1.1328125 C-19.2493633 0.11713478 -9.67616921 -0.01456105 0 0 Z " fill="#FEFEAC" transform="translate(168.88671875,142.8671875)"/>
<path d="M0 0 C1.8126345 0.14415198 3.62510022 0.29042636 5.4375 0.4375 C6.95150391 0.55931641 6.95150391 0.55931641 8.49609375 0.68359375 C10.89176358 0.89992514 13.28266316 1.17493967 15.66601562 1.5 C23.02826227 2.31881354 30.44855661 2.23708431 37.84765625 2.31640625 C39.47147608 2.33701251 41.09529099 2.35800985 42.71910095 2.37937927 C46.96536236 2.43422118 51.21166909 2.48379533 55.45800781 2.53222656 C60.56769447 2.59161925 65.67729942 2.65763598 70.78691864 2.72252655 C78.52456197 2.82005847 86.26226094 2.9092404 94 3 C94.33 14.22 94.66 25.44 95 37 C97.64 33.37 100.28 29.74 103 26 C103.33 26 103.66 26 104 26 C104 27.65 104 29.3 104 31 C102.515 31.495 102.515 31.495 101 32 C100.26676204 34.01508358 100.26676204 34.01508358 100 36 C99.01 36 98.02 36 97 36 C96.67 37.65 96.34 39.3 96 41 C94.68 41 93.36 41 92 41 C92 28.79 92 16.58 92 4 C86.66457031 4.09539062 81.32914062 4.19078125 75.83203125 4.2890625 C72.42774453 4.34496437 69.0234719 4.40020991 65.61914062 4.453125 C60.22976778 4.53695599 54.84050578 4.62305748 49.45141602 4.72363281 C45.10080861 4.80467404 40.75014375 4.87473793 36.39923668 4.93757248 C34.74921981 4.96325781 33.09925685 4.99272776 31.44938087 5.02626419 C21.7109496 5.22136106 12.59544741 4.89913684 3 3 C3 2.34 3 1.68 3 1 C2.01 0.67 1.02 0.34 0 0 Z " fill="#FEFE9A" transform="translate(131,362)"/>
<path d="M0 0 C0.33 0 0.66 0 1 0 C1 3.63 1 7.26 1 11 C0.34 11 -0.32 11 -1 11 C-0.98839844 11.92683594 -0.97679687 12.85367188 -0.96484375 13.80859375 C-0.95582031 15.00613281 -0.94679688 16.20367187 -0.9375 17.4375 C-0.92589844 18.63246094 -0.91429687 19.82742187 -0.90234375 21.05859375 C-1 24 -1 24 -2 25 C-2.10112813 27.93366968 -2.1396904 30.84330173 -2.1328125 33.77734375 C-2.13376923 34.65902725 -2.13472595 35.54071075 -2.13571167 36.44911194 C-2.13639359 38.31788199 -2.13453851 40.18665439 -2.13037109 42.05541992 C-2.12502932 44.92176628 -2.13031242 47.78795547 -2.13671875 50.65429688 C-2.13605785 52.46614618 -2.13477643 54.27799539 -2.1328125 56.08984375 C-2.13483673 56.9513353 -2.13686096 57.81282684 -2.13894653 58.70042419 C-2.24815079 62.98542245 -2.24815079 62.98542245 -1 67 C-0.81687483 69.35155974 -0.67805206 71.70665285 -0.5625 74.0625 C-0.2397262 79.91146796 0.62385969 85.3119534 2 91 C2.125 94.0625 2.125 94.0625 2 96 C0.42768016 93.12746892 -0.42815444 90.55263849 -1.03515625 87.33984375 C-1.20466797 86.46392578 -1.37417969 85.58800781 -1.54882812 84.68554688 C-1.71833984 83.77869141 -1.88785156 82.87183594 -2.0625 81.9375 C-2.4058804 80.13379553 -2.75086444 78.33039542 -3.09765625 76.52734375 C-3.32207397 75.33226196 -3.32207397 75.33226196 -3.55102539 74.11303711 C-3.99568747 71.82602182 -3.99568747 71.82602182 -5 69 C-5.45558068 63.81987892 -5.68538892 58.63427457 -5.89599609 53.43896484 C-5.96085624 51.91794879 -6.03507965 50.39726781 -6.12353516 48.87744141 C-7.01557553 33.21928597 -4.97580317 14.92740952 0 0 Z " fill="#FEFEA5" transform="translate(22,232)"/>
<path d="M0 0 C1.35375132 0.01801122 2.70757358 0.03125822 4.06141663 0.03997803 C7.60272676 0.0760803 11.139024 0.17903643 14.6784668 0.29577637 C18.29478707 0.40180354 21.91180674 0.43877284 25.52929688 0.484375 C30.79517669 0.56353267 36.05971061 0.66526356 41.32397461 0.82128906 C42.38128281 0.8522467 43.438591 0.88320435 44.52793884 0.9151001 C46.91015625 1.109375 46.91015625 1.109375 47.91015625 2.109375 C48.40170173 5.5686263 47.99206784 6.97389177 46.16015625 10.00390625 C45.41765625 10.96683594 44.67515625 11.92976562 43.91015625 12.921875 C43.16765625 13.89769531 42.42515625 14.87351563 41.66015625 15.87890625 C40.79390625 16.98298828 40.79390625 16.98298828 39.91015625 18.109375 C39.41515625 16.624375 39.41515625 16.624375 38.91015625 15.109375 C40.15824299 13.66927492 41.41525031 12.23112274 42.78125 10.90234375 C44.39973007 8.33181657 43.98291877 6.08760279 43.91015625 3.109375 C36.61445086 3.05859924 29.31879117 3.02360949 22.02294922 2.99951172 C19.5418121 2.989464 17.0606868 2.97582356 14.57958984 2.95849609 C11.01006146 2.93419414 7.44068987 2.92287942 3.87109375 2.9140625 C2.76462494 2.90373993 1.65815613 2.89341736 0.51815796 2.88278198 C-6.99848425 2.8273372 -6.99848425 2.8273372 -14.08984375 5.109375 C-15.32274576 7.56642262 -15.32274576 7.56642262 -16.08984375 10.109375 C-17.07984375 10.769375 -18.06984375 11.429375 -19.08984375 12.109375 C-20.29434679 14.66120904 -20.29434679 14.66120904 -21.08984375 17.109375 C-22.07984375 17.109375 -23.06984375 17.109375 -24.08984375 17.109375 C-19.23692233 4.07623393 -13.98562823 -0.5815675 0 0 Z " fill="#FEFEAA" transform="translate(422.08984375,141.890625)"/>
<path d="M0 0 C0 0.66 0 1.32 0 2 C-0.66 2 -1.32 2 -2 2 C-2 2.66 -2 3.32 -2 4 C-3.609375 5.69140625 -3.609375 5.69140625 -5.75 7.5625 C-6.44609375 8.18253906 -7.1421875 8.80257812 -7.859375 9.44140625 C-10.01386363 11.01009414 -11.4419416 11.44993734 -14 12 C-16.69698684 14.31170301 -17.86560182 15.59680547 -19 19 C-19.66 19 -20.32 19 -21 19 C-21.433125 19.8971875 -21.433125 19.8971875 -21.875 20.8125 C-24.05332716 25.04813614 -25.54038031 26.47434063 -30 28 C-25.99392532 19.23308296 -10.26454263 0 0 0 Z " fill="#FEFEA7" transform="translate(70,167)"/>
<path d="M0 0 C8.37109416 -0.18565712 16.74132354 -0.32765072 25.1139698 -0.41449738 C29.00217708 -0.45618836 32.88897254 -0.51269486 36.77636719 -0.60351562 C40.53068697 -0.69067482 44.28365245 -0.73831995 48.0389061 -0.75901794 C49.46878253 -0.77375964 50.89858768 -0.8025505 52.32788467 -0.84584045 C63.56273596 -1.17247099 63.56273596 -1.17247099 67.24847412 1.83422852 C68.76191087 3.83304695 69.95441604 5.72600698 71 8 C70.67 8.66 70.34 9.32 70 10 C65.125 6.5 65.125 6.5 64 2 C33.805 1.505 33.805 1.505 3 1 C3.33 2.32 3.66 3.64 4 5 C2.64567325 3.68799596 1.31266518 2.35368596 0 1 C0 0.67 0 0.34 0 0 Z " fill="#FEFEA1" transform="translate(252,195)"/>
<path d="M0 0 C1.32 0.33 2.64 0.66 4 1 C4 1.66 4 2.32 4 3 C33.7 3.495 33.7 3.495 64 4 C63.505 2.02 63.505 2.02 63 0 C64.35432675 1.31200404 65.68733482 2.64631404 67 4 C67 4.33 67 4.66 67 5 C58.70733878 5.11579655 50.41501466 5.2046645 42.12174511 5.25906086 C38.27089595 5.28516727 34.42059942 5.32058231 30.57006836 5.37719727 C26.85475033 5.43148295 23.13996414 5.46141268 19.42428017 5.47438622 C18.00601132 5.48363259 16.58777194 5.50168912 15.16972923 5.52865028 C13.18529977 5.56488313 11.2003363 5.56704187 9.21557617 5.56762695 C7.52013924 5.58428154 7.52013924 5.58428154 5.79045105 5.60127258 C3 5 3 5 1.11152649 2.46452332 C0.74472275 1.65123062 0.37791901 0.83793793 0 0 Z " fill="#FFFEA7" transform="translate(369,358)"/>
<path d="M0 0 C0.33 0 0.66 0 1 0 C1 11.22 1 22.44 1 34 C1.66 34 2.32 34 3 34 C3.20625 33.34 3.4125 32.68 3.625 32 C5.50096465 27.90698622 8.08488226 24.42505088 11 21 C11.33 21 11.66 21 12 21 C12 22.65 12 24.3 12 26 C11.01 26.33 10.02 26.66 9 27 C8.26676204 29.01508358 8.26676204 29.01508358 8 31 C7.01 31 6.02 31 5 31 C4.505 33.475 4.505 33.475 4 36 C2.68 36 1.36 36 0 36 C0 24.12 0 12.24 0 0 Z " fill="#FEFFDA" transform="translate(223,367)"/>
<path d="M0 0 C0 3.10804508 -0.455955 4.3443293 -1.8125 7.0625 C-2.14894531 7.75472656 -2.48539062 8.44695312 -2.83203125 9.16015625 C-4 11 -4 11 -7 13 C-7.33 13.845625 -7.66 14.69125 -8 15.5625 C-8.33 16.366875 -8.66 17.17125 -9 18 C-9.99 18.33 -10.98 18.66 -12 19 C-11.67 20.32 -11.34 21.64 -11 23 C-12.65 23.33 -14.3 23.66 -16 24 C-14.71427532 20.47710665 -13.20776926 17.63299976 -10.99609375 14.609375 C-10.42052734 13.81789063 -9.84496094 13.02640625 -9.25195312 12.2109375 C-8.35379883 10.99277344 -8.35379883 10.99277344 -7.4375 9.75 C-6.83486328 8.92242187 -6.23222656 8.09484375 -5.61132812 7.2421875 C-1.19462386 1.19462386 -1.19462386 1.19462386 0 0 Z " fill="#FEFE94" transform="translate(293,305)"/>
<path d="M0 0 C0 3.57275767 -0.71957977 4.30925465 -2.84375 7.08984375 C-3.72353516 8.26643555 -3.72353516 8.26643555 -4.62109375 9.46679688 C-5.87181661 11.11145843 -7.12441676 12.75469407 -8.37890625 14.39648438 C-8.96542969 15.18216797 -9.55195313 15.96785156 -10.15625 16.77734375 C-10.70087891 17.49140381 -11.24550781 18.20546387 -11.80664062 18.94116211 C-13.33431801 21.1801658 -13.33431801 21.1801658 -13 25 C-13.99 25.33 -14.98 25.66 -16 26 C-16 24.02 -16 22.04 -16 20 C-15.34 20 -14.68 20 -14 20 C-14 19.01 -14 18.02 -14 17 C-13.34 17 -12.68 17 -12 17 C-12 16.34 -12 15.68 -12 15 C-11.34 15 -10.68 15 -10 15 C-10 14.01 -10 13.02 -10 12 C-9.34 12 -8.68 12 -8 12 C-8 10.68 -8 9.36 -8 8 C-7.01 8 -6.02 8 -5 8 C-4.9175 7.05125 -4.835 6.1025 -4.75 5.125 C-4 2 -4 2 -1.9375 0.625 C-1.298125 0.41875 -0.65875 0.2125 0 0 Z " fill="#FEFEAB" transform="translate(391,256)"/>
<path d="M0 0 C3.3 0.33 6.6 0.66 10 1 C10 1.66 10 2.32 10 3 C10.721875 2.938125 11.44375 2.87625 12.1875 2.8125 C15 3 15 3 17.375 4.4375 C20.01970691 6.24237971 20.01970691 6.24237971 23.625 6.5 C27 7 27 7 28.9375 8.5625 C29.288125 9.036875 29.63875 9.51125 30 10 C22.99971056 9.47497829 17.03751623 7.4212414 10.5 4.9375 C8.98019531 4.37192383 8.98019531 4.37192383 7.4296875 3.79492188 C4.95013886 2.87093913 2.47382599 1.9391731 0 1 C0 0.67 0 0.34 0 0 Z " fill="#FDFEA9" transform="translate(85,398)"/>
<path d="M0 0 C-1.61255667 5.10809878 -4.72512783 8.93096356 -7.9375 13.125 C-8.47568359 13.84042969 -9.01386719 14.55585938 -9.56835938 15.29296875 C-11.90923139 18.38141888 -14.20459898 21.30629685 -17 24 C-17.33 22.68 -17.66 21.36 -18 20 C-17.01 19.67 -16.02 19.34 -15 19 C-14.27973935 17.26482662 -13.56360795 15.52748881 -12.890625 13.7734375 C-11.55848914 11.12085117 -9.32583114 9.77497639 -7 8 C-6.6278958 6.67696283 -6.29369827 5.34262065 -6 4 C-2.55555556 0 -2.55555556 0 0 0 Z " fill="#FEFEA9" transform="translate(335,336)"/>
<path d="M0 0 C1.75763672 0.81404297 1.75763672 0.81404297 3.55078125 1.64453125 C11.88825622 5.45736843 19.9801993 9.09272937 29 11 C29 11.33 29 11.66 29 12 C25.04 11.67 21.08 11.34 17 11 C17 10.34 17 9.68 17 9 C15.35 9 13.7 9 12 9 C12 8.34 12 7.68 12 7 C7.545 6.01 7.545 6.01 3 5 C3 4.34 3 3.68 3 3 C2.01 2.67 1.02 2.34 0 2 C0 1.34 0 0.68 0 0 Z " fill="#FDFE9F" transform="translate(102,350)"/>
<path d="M0 0 C2.475 0.495 2.475 0.495 5 1 C5.33 1.99 5.66 2.98 6 4 C6.99 4 7.98 4 9 4 C9.99 5.485 9.99 5.485 11 7 C14.58357241 7.25015873 14.58357241 7.25015873 18 7 C18 8.98 18 10.96 18 13 C13.64864607 11.51731644 10.40129179 9.2699455 6.75 6.5 C5.93789063 5.89478516 5.93789063 5.89478516 5.109375 5.27734375 C1.13238808 2.26477616 1.13238808 2.26477616 0 0 Z " fill="#FEFEAA" transform="translate(56,379)"/>
<path d="M0 0 C0.99 0 1.98 0 3 0 C3 0.99 3 1.98 3 3 C3.598125 3.020625 4.19625 3.04125 4.8125 3.0625 C7 4 7 4 8.8125 7.375 C10 11 10 11 9 14 C7.49412261 12.04594482 5.99521356 10.08718716 4.5 8.125 C4.07074219 7.56941406 3.64148438 7.01382812 3.19921875 6.44140625 C0 2.2265625 0 2.2265625 0 0 Z " fill="#FEFEC6" transform="translate(348,328)"/>
<path d="M0 0 C2.0625 0.4375 2.0625 0.4375 4 1 C2.97519531 1.54269531 1.95039062 2.08539063 0.89453125 2.64453125 C-0.46618303 3.36711745 -1.82685804 4.08977762 -3.1875 4.8125 C-3.86103516 5.16892578 -4.53457031 5.52535156 -5.22851562 5.89257812 C-8.88162727 7.83496432 -12.47478512 9.83011045 -16 12 C-16 11.01 -16 10.02 -16 9 C-15.01 8.67 -14.02 8.34 -13 8 C-12.67 7.01 -12.34 6.02 -12 5 C-9.29745341 3.19830227 -7.92139827 2.60635866 -4.875 1.9375 C-1.24075537 1.41442255 -1.24075537 1.41442255 0 0 Z " fill="#FDFEAB" transform="translate(113,200)"/>
<path d="M0 0 C0 3.04122415 -0.34935177 4.06538899 -1.6796875 6.6875 C-2.03160156 7.38617188 -2.38351563 8.08484375 -2.74609375 8.8046875 C-3.11863281 9.52914062 -3.49117188 10.25359375 -3.875 11 C-4.42220703 12.08667969 -4.42220703 12.08667969 -4.98046875 13.1953125 C-6.53641233 16.26193585 -8.08788114 19.1318217 -10 22 C-9.28547412 17.23649415 -8.20465156 12.65798604 -7 8 C-6.34 8 -5.68 8 -5 8 C-5 6.68 -5 5.36 -5 4 C-2.5 1.75 -2.5 1.75 0 0 Z " fill="#FDFEA9" transform="translate(84,224)"/>
<path d="M0 0 C0.33 0 0.66 0 1 0 C1 3.63 1 7.26 1 11 C0.34 11 -0.32 11 -1 11 C-1.04898437 11.68707031 -1.09796875 12.37414062 -1.1484375 13.08203125 C-1.22320313 13.98308594 -1.29796875 14.88414062 -1.375 15.8125 C-1.44460937 16.70582031 -1.51421875 17.59914062 -1.5859375 18.51953125 C-2 21 -2 21 -4 24 C-2.07289294 7.1070615 -2.07289294 7.1070615 0 0 Z " fill="#FEFDA6" transform="translate(22,232)"/>
<path d="M0 0 C0 4.13997696 -2.16832917 6.45607031 -4.5 9.6875 C-4.92925781 10.29400391 -5.35851562 10.90050781 -5.80078125 11.52539062 C-6.86093138 13.02138026 -7.92965571 14.511287 -9 16 C-10.2077558 12.37673261 -9.54311128 11.35853631 -8 8 C-7.34 8 -6.68 8 -6 8 C-6 7.01 -6 6.02 -6 5 C-4.68 4.67 -3.36 4.34 -2 4 C-2 3.01 -2 2.02 -2 1 C-1.34 0.67 -0.68 0.34 0 0 Z " fill="#FEFEA9" transform="translate(291,396)"/>
<path d="M0 0 C0 0.66 0 1.32 0 2 C-0.66 2 -1.32 2 -2 2 C-2 2.66 -2 3.32 -2 4 C-3.6796875 5.69140625 -3.6796875 5.69140625 -5.875 7.5625 C-6.59429687 8.18253906 -7.31359375 8.80257812 -8.0546875 9.44140625 C-10 11 -10 11 -12 12 C-11.43386581 6.90479232 -7.54604059 4.28100506 -3.8125 1.1875 C-2 0 -2 0 0 0 Z " fill="#FEFEBA" transform="translate(70,167)"/>
<path d="M0 0 C0.33 0 0.66 0 1 0 C1 1.65 1 3.3 1 5 C0.0409375 5.37125 0.0409375 5.37125 -0.9375 5.75 C-1.9584375 6.36875 -1.9584375 6.36875 -3 7 C-3.144375 7.639375 -3.28875 8.27875 -3.4375 8.9375 C-4 11 -4 11 -6.5625 12.75 C-7.7690625 13.36875 -7.7690625 13.36875 -9 14 C-7.45315734 10.67312232 -5.54045021 7.75296022 -3.4375 4.75 C-2.81746094 3.85796875 -2.19742188 2.9659375 -1.55859375 2.046875 C-1.04425781 1.37140625 -0.52992188 0.6959375 0 0 Z " fill="#FEFEB1" transform="translate(256,357)"/>
<path d="M0 0 C0.33 0 0.66 0 1 0 C1 1.98 1 3.96 1 6 C0.01 6 -0.98 6 -2 6 C-2.33 7.32 -2.66 8.64 -3 10 C-3.99 10 -4.98 10 -6 10 C-6.66 11.32 -7.32 12.64 -8 14 C-8 9.98165669 -6.43998366 8.50894113 -4.0625 5.3125 C-3.33160156 4.31863281 -2.60070312 3.32476562 -1.84765625 2.30078125 C-1.23792969 1.54152344 -0.62820313 0.78226563 0 0 Z " fill="#FDFEA9" transform="translate(378,186)"/>
<path d="M0 0 C1.89646998 0.11493757 3.79218332 0.24239642 5.6875 0.375 C6.74324219 0.44460938 7.79898438 0.51421875 8.88671875 0.5859375 C11.92430627 0.98993283 14.20996667 1.77697169 17 3 C18.65919896 3.36871088 20.3247643 3.71281674 22 4 C22 4.33 22 4.66 22 5 C15.66118686 4.37802877 9.32905858 3.71457113 3 3 C3 2.34 3 1.68 3 1 C2.01 0.67 1.02 0.34 0 0 Z " fill="#FEFEBE" transform="translate(131,362)"/>
<path d="M0 0 C1.32 0.33 2.64 0.66 4 1 C4.33 2.32 4.66 3.64 5 5 C5.66 5 6.32 5 7 5 C7 5.66 7 6.32 7 7 C7.66 7 8.32 7 9 7 C9.25 9.8125 9.25 9.8125 9 13 C7 14.875 7 14.875 5 16 C5.474375 15.195625 5.94875 14.39125 6.4375 13.5625 C7.381972 10.05998621 7.381972 10.05998621 5.57421875 7.6328125 C4.28325577 6.0132878 2.95888523 4.4197963 1.6015625 2.85546875 C0 1 0 1 0 0 Z " fill="#FEFEAC" transform="translate(304,268)"/>
<path d="M0 0 C3.67761277 2.94209022 4.72431991 5.59081436 5.80078125 10 C6.02364169 12.23734399 5.66235534 13.86521444 5 16 C4.1605118 13.89828133 3.32860344 11.79353375 2.5 9.6875 C2.0359375 8.51574219 1.571875 7.34398437 1.09375 6.13671875 C0 3 0 3 0 0 Z " fill="#FDFEB3" transform="translate(24,328)"/>
<path d="M0 0 C0.33 0 0.66 0 1 0 C2.32 5.94 3.64 11.88 5 18 C4.01 18 3.02 18 2 18 C0.3722167 11.85221129 -0.20190089 6.35987804 0 0 Z " fill="#FDFDAD" transform="translate(71,299)"/>
<path d="M0 0 C4.08113255 1.36037752 4.6980316 3.56056954 6.71875 7.1875 C7.95327565 9.31338935 7.95327565 9.31338935 11 10 C11.33 12.31 11.66 14.62 12 17 C8.67835601 13.9102726 6.23969512 10.59775869 3.75 6.8125 C3.04359375 5.74644531 2.3371875 4.68039063 1.609375 3.58203125 C0 1 0 1 0 0 Z " fill="#FDFE9E" transform="translate(256,200)"/>
<path d="M0 0 C0.33 0 0.66 0 1 0 C1 1.65 1 3.3 1 5 C0.01 5.33 -0.98 5.66 -2 6 C-2.73323796 8.01508358 -2.73323796 8.01508358 -3 10 C-3.99 10 -4.98 10 -6 10 C-6 10.66 -6 11.32 -6 12 C-6.66 11.67 -7.32 11.34 -8 11 C-6.69144447 9.16384919 -5.37805538 7.33114211 -4.0625 5.5 C-3.33160156 4.4790625 -2.60070312 3.458125 -1.84765625 2.40625 C-1.23792969 1.6121875 -0.62820312 0.818125 0 0 Z " fill="#FEFEAF" transform="translate(234,388)"/>
<path d="M0 0 C2 0 2 0 4 1.6875 C6 4 6 4 7.0625 6.6875 C7.371875 7.450625 7.68125 8.21375 8 9 C8.99 9.33 9.98 9.66 11 10 C11 11.65 11 13.3 11 15 C6.48314191 10.88168822 3.1481023 6.23601895 0 1 C0 0.67 0 0.34 0 0 Z " fill="#FEFEA4" transform="translate(275,227)"/>
<path d="M0 0 C1.65 0 3.3 0 5 0 C5.33 0.66 5.66 1.32 6 2 C5.67 2.99 5.34 3.98 5 5 C5.66 5 6.32 5 7 5 C7.33 6.98 7.66 8.96 8 11 C4.32966073 7.72291137 2.30718811 4.28477792 0 0 Z " fill="#FEFEB4" transform="translate(292,251)"/>
<path d="M0 0 C1.65 0 3.3 0 5 0 C5.66 1.65 6.32 3.3 7 5 C5.68 4.01 4.36 3.02 3 2 C1.35 4.31 -0.3 6.62 -2 9 C-3.24546405 6.50907189 -2.7767578 5.58919267 -2 3 C-1.34 3 -0.68 3 0 3 C0 2.01 0 1.02 0 0 Z " fill="#FEFDB0" transform="translate(341,323)"/>
<path d="M0 0 C0 4.01834331 -1.56001634 5.49105887 -3.9375 8.6875 C-4.66839844 9.68136719 -5.39929688 10.67523438 -6.15234375 11.69921875 C-6.76207031 12.45847656 -7.37179687 13.21773437 -8 14 C-8.33 14 -8.66 14 -9 14 C-9 12.35 -9 10.7 -9 9 C-8.38125 8.938125 -7.7625 8.87625 -7.125 8.8125 C-4.7498001 8.19124685 -4.7498001 8.19124685 -3.9375 5.625 C-3.628125 4.75875 -3.31875 3.8925 -3 3 C-1.375 1.1875 -1.375 1.1875 0 0 Z " fill="#FEFEAB" transform="translate(434,196)"/>
<path d="M0 0 C0 4.03381023 -1.59573562 5.49433637 -4 8.6875 C-4.7425 9.68136719 -5.485 10.67523438 -6.25 11.69921875 C-7.11625 12.83810547 -7.11625 12.83810547 -8 14 C-8.33 13.34 -8.66 12.68 -9 12 C-8.67 11.01 -8.34 10.02 -8 9 C-7.34 9 -6.68 9 -6 9 C-6 7.68 -6 6.36 -6 5 C-4.21722256 2.98376361 -2.16873843 1.62655382 0 0 Z " fill="#FEFEA6" transform="translate(317,360)"/>
<path d="M0 0 C1.1700097 3.91736581 0.69584017 6.97959015 0 11 C-0.66 11 -1.32 11 -2 11 C-2.33 12.32 -2.66 13.64 -3 15 C-4.43410153 11.21180727 -3.51009497 8.93478721 -2.0625 5.25 C-1.49208984 3.77273437 -1.49208984 3.77273437 -0.91015625 2.265625 C-0.60980469 1.51796875 -0.30945313 0.7703125 0 0 Z " fill="#FDFEA9" transform="translate(27,217)"/>
<path d="M0 0 C-4.81384901 3.81788025 -10.10647769 3.70067925 -16 4 C-13.41588269 2.27725513 -11.45097344 1.31104478 -8.5625 0.3125 C-7.41974609 -0.09548828 -7.41974609 -0.09548828 -6.25390625 -0.51171875 C-3.78170279 -1.04729142 -2.37016716 -0.80445309 0 0 Z " fill="#FEFEAA" transform="translate(108,152)"/>
<path d="M0 0 C2.60608273 2.5162178 4.89381685 5.05134359 7 8 C6.67 8.66 6.34 9.32 6 10 C5.38125 9.649375 4.7625 9.29875 4.125 8.9375 C3.42375 8.628125 2.7225 8.31875 2 8 C1.01 8.495 1.01 8.495 0 9 C0 6.03 0 3.06 0 0 Z " fill="#FEFEB4" transform="translate(406,321)"/>
<path d="M0 0 C0.66 0 1.32 0 2 0 C0.6062718 4.43458973 -1.60582235 6.87378374 -5 10 C-5 8.35 -5 6.7 -5 5 C-4.34 5 -3.68 5 -3 5 C-3.33 4.01 -3.66 3.02 -4 2 C-2.68 2 -1.36 2 0 2 C0 1.34 0 0.68 0 0 Z " fill="#FEFEB1" transform="translate(400,242)"/>
<path d="M0 0 C1.98 0 3.96 0 6 0 C6 2.97 6 5.94 6 9 C2.91910327 6.22719294 1.31224548 3.93673644 0 0 Z " fill="#FDFEBB" transform="translate(286,242)"/>
<path d="M0 0 C2.60608273 2.5162178 4.89381685 5.05134359 7 8 C6.67 8.66 6.34 9.32 6 10 C5.38125 9.649375 4.7625 9.29875 4.125 8.9375 C3.42375 8.628125 2.7225 8.31875 2 8 C1.01 8.495 1.01 8.495 0 9 C0 6.03 0 3.06 0 0 Z " fill="#FEFEB4" transform="translate(326,209)"/>
<path d="M0 0 C0 3.60573896 -0.81707462 4.41336566 -3 7.1875 C-3.556875 7.90292969 -4.11375 8.61835938 -4.6875 9.35546875 C-5.120625 9.89816406 -5.55375 10.44085938 -6 11 C-7 9 -7 9 -6.9375 6.625 C-5.61638923 2.92588984 -3.32196094 1.90836054 0 0 Z " fill="#FEFEB1" transform="translate(457,164)"/>
<path d="M0 0 C0 3.57575896 -1.08840607 5.05295935 -3 8 C-4.65 7.67 -6.3 7.34 -8 7 C-8.33 5.35 -8.66 3.7 -9 2 C-7.68 3.32 -6.36 4.64 -5 6 C-3.35 4.02 -1.7 2.04 0 0 Z " fill="#FDFE9B" transform="translate(349,227)"/>
<path d="M0 0 C0 0.66 0 1.32 0 2 C-0.66 2 -1.32 2 -2 2 C-2 2.99 -2 3.98 -2 5 C-4.64 5 -7.28 5 -10 5 C-3.63636364 0 -3.63636364 0 0 0 Z " fill="#FEFEB7" transform="translate(85,159)"/>
<path d="M0 0 C3.39417765 3.12621626 5.6062718 5.56541027 7 10 C3.73539027 8.19587357 2.11070205 7.16605307 0 4 C0 2.68 0 1.36 0 0 Z " fill="#FEFEA4" transform="translate(423,345)"/>
<path d="M0 0 C0.33 1.32 0.66 2.64 1 4 C0.34 4 -0.32 4 -1 4 C-1 4.99 -1 5.98 -1 7 C-4 9.1875 -4 9.1875 -7 11 C-5.22054913 6.95579349 -2.60470327 3.53921513 0 0 Z " fill="#FEFE94" transform="translate(268,340)"/>
<path d="M0 0 C2.29296875 -0.25 2.29296875 -0.25 5 0 C6.80078125 1.75 6.80078125 1.75 8.3125 4 C8.82425781 4.7425 9.33601563 5.485 9.86328125 6.25 C10.23839844 6.8275 10.61351562 7.405 11 8 C10.67 8.66 10.34 9.32 10 10 C6.46188277 7.45981327 4.97570385 6.18158794 4 2 C2.0162233 0.71563266 2.0162233 0.71563266 0 0 Z " fill="#FEFE97" transform="translate(312,195)"/>
<path d="M0 0 C0 3.60573896 -0.81707462 4.41336566 -3 7.1875 C-3.556875 7.90292969 -4.11375 8.61835938 -4.6875 9.35546875 C-5.120625 9.89816406 -5.55375 10.44085938 -6 11 C-6.33 9.68 -6.66 8.36 -7 7 C-6.34 7 -5.68 7 -5 7 C-5 6.34 -5 5.68 -5 5 C-4.34 5 -3.68 5 -3 5 C-3 4.01 -3 3.02 -3 2 C-2.01 1.34 -1.02 0.68 0 0 Z " fill="#FEFEA2" transform="translate(442,185)"/>
<path d="M0 0 C0 1.98 0 3.96 0 6 C-2.4375 5.1875 -2.4375 5.1875 -5 4 C-5.33 3.01 -5.66 2.02 -6 1 C-3 0 -3 0 0 0 Z " fill="#FDFEC8" transform="translate(74,386)"/>
<path d="M0 0 C0 0.99 0 1.98 0 3 C-0.99 3.33 -1.98 3.66 -3 4 C-2.67 5.32 -2.34 6.64 -2 8 C-3.65 8.33 -5.3 8.66 -7 9 C-5.64978174 4.58110387 -3.73884332 2.65654657 0 0 Z " fill="#FEFEBD" transform="translate(284,320)"/>
<path d="M0 0 C2.60608273 2.5162178 4.89381685 5.05134359 7 8 C6.67 8.66 6.34 9.32 6 10 C2.64888166 7.76592111 1.18446044 6.73784176 0.1875 2.75 C0.125625 1.8425 0.06375 0.935 0 0 Z " fill="#FEFDA0" transform="translate(396,307)"/>
<path d="M0 0 C2.375 0.5 2.375 0.5 5 2 C6.08241903 4.66525288 6.49272107 7.1407915 7 10 C3.66442368 7.0094833 1.84916079 4.06815373 0 0 Z " fill="#FEFEA2" transform="translate(268,217)"/>
<path d="M0 0 C0.625 1.8125 0.625 1.8125 1 4 C-1 7 -1 7 -3.125 7.6875 C-3.74375 7.790625 -4.3625 7.89375 -5 8 C-3.62845496 5.04590299 -2.01136276 2.55991624 0 0 Z " fill="#FDFDA8" transform="translate(244,374)"/>
<path d="M0 0 C2.125 0.375 2.125 0.375 4 1 C2.35830472 3.02054804 0.69088222 5.02043058 -1 7 C-1.33 7 -1.66 7 -2 7 C-2.125 4.625 -2.125 4.625 -2 2 C-1.34 1.34 -0.68 0.68 0 0 Z " fill="#FEFEB7" transform="translate(87,217)"/>
<path d="M0 0 C1.24546405 2.49092811 0.7767578 3.41080733 0 6 C-0.66 6 -1.32 6 -2 6 C-2 6.99 -2 7.98 -2 9 C-2.99 9 -3.98 9 -5 9 C-3.7508258 5.54074837 -2.32472205 2.85306797 0 0 Z " fill="#FEFE99" transform="translate(39,195)"/>
<path d="M0 0 C0.66 0.33 1.32 0.66 2 1 C-0.97 4.96 -0.97 4.96 -4 9 C-4.33 7.68 -4.66 6.36 -5 5 C-4.34 5 -3.68 5 -3 5 C-3 4.01 -3 3.02 -3 2 C-2.01 1.34 -1.02 0.68 0 0 Z " fill="#FEFEA6" transform="translate(448,176)"/>
<path d="M0 0 C0.625 1.8125 0.625 1.8125 1 4 C0.01 5.485 0.01 5.485 -1 7 C-1.99 7 -2.98 7 -4 7 C-2.92598892 4.08482708 -2.22189824 2.22189824 0 0 Z " fill="#FEFEAD" transform="translate(354,220)"/>
<path d="M0 0 C0.66 0.33 1.32 0.66 2 1 C-0.475 4.465 -0.475 4.465 -3 8 C-3.33 6.68 -3.66 5.36 -4 4 C-3.34 4 -2.68 4 -2 4 C-2 3.01 -2 2.02 -2 1 C-1.34 0.67 -0.68 0.34 0 0 Z " fill="#FEFEAB" transform="translate(419,216)"/>
<path d="M0 0 C0.99 0 1.98 0 3 0 C4.0625 1.8125 4.0625 1.8125 5 4 C4.67 4.99 4.34 5.98 4 7 C0 2.25 0 2.25 0 0 Z " fill="#FEFDA5" transform="translate(348,328)"/>
</svg>
